<svg viewBox="0 0 600 450" xmlns="http://www.w3.org/2000/svg">
  <defs>
    <linearGradient id="bg2" x1="0%" y1="0%" x2="100%" y2="100%">
      <stop offset="0%" stop-color="#eff6ff"/>
      <stop offset="100%" stop-color="#dbeafe"/>
    </linearGradient>
    <linearGradient id="cover2" x1="0%" y1="0%" x2="100%" y2="100%">
      <stop offset="0%" stop-color="#fde8d7"/>
      <stop offset="100%" stop-color="#fce7f3"/>
    </linearGradient>
  </defs>

  <rect width="600" height="450" rx="16" fill="url(#bg2)"/>
  <rect x="1" y="1" width="598" height="448" rx="15" fill="none" stroke="#bfdbfe" stroke-width="2"/>

  <!-- Carte formulaire campagne -->
  <rect x="32" y="32" width="536" height="386" rx="14" fill="#ffffff" stroke="#e5e7eb" stroke-width="1.5"/>

  <rect x="32" y="32" width="536" height="90" rx="14" fill="url(#cover2)"/>
  <rect x="32" y="90" width="536" height="32" fill="url(#cover2)"/>
  <rect x="472" y="52" width="76" height="76" rx="16" fill="#2563eb"/>
  <text x="510" y="98" font-family="Arial, sans-serif" font-size="26" font-weight="800" fill="#ffffff" text-anchor="middle">CD</text>

  <rect x="52" y="52" width="150" height="26" rx="13" fill="#ffffff"/>
  <text x="127" y="69" font-family="Arial, sans-serif" font-size="10" font-weight="700" fill="#2563eb" text-anchor="middle">🏆 Campagne active</text>

  <text x="52" y="160" font-family="Arial, sans-serif" font-size="16" font-weight="800" fill="#111827">Lancement produit tech Q3</text>
  <text x="52" y="180" font-family="Arial, sans-serif" font-size="11" fill="#6b7280">Par CreatorDealRoom · Créée en 2 clics</text>

  <line x1="52" y1="200" x2="548" y2="200" stroke="#e5e7eb" stroke-width="1.5"/>

  <rect x="52" y="220" width="150" height="70" rx="10" fill="#f9fafb"/>
  <text x="127" y="248" font-family="Arial, sans-serif" font-size="18" font-weight="800" fill="#2563eb" text-anchor="middle">2 500€</text>
  <text x="127" y="266" font-family="Arial, sans-serif" font-size="9" font-weight="600" fill="#6b7280" text-anchor="middle">BUDGET</text>

  <rect x="212" y="220" width="150" height="70" rx="10" fill="#f9fafb"/>
  <text x="287" y="248" font-family="Arial, sans-serif" font-size="18" font-weight="800" fill="#2563eb" text-anchor="middle">14</text>
  <text x="287" y="266" font-family="Arial, sans-serif" font-size="9" font-weight="600" fill="#6b7280" text-anchor="middle">CANDIDATS</text>

  <rect x="372" y="220" width="176" height="70" rx="10" fill="#f9fafb"/>
  <text x="460" y="248" font-family="Arial, sans-serif" font-size="18" font-weight="800" fill="#2563eb" text-anchor="middle">5</text>
  <text x="460" y="266" font-family="Arial, sans-serif" font-size="9" font-weight="600" fill="#6b7280" text-anchor="middle">VALIDÉS</text>

  <rect x="52" y="310" width="496" height="40" rx="10" fill="#dcfce7"/>
  <text x="72" y="335" font-family="Arial, sans-serif" font-size="11" font-weight="700" fill="#16a34a">🏆 5 créateurs déjà validés sur cette campagne</text>

  <rect x="52" y="366" width="220" height="34" rx="10" fill="#2563eb"/>
  <text x="162" y="388" font-family="Arial, sans-serif" font-size="11" font-weight="700" fill="#ffffff" text-anchor="middle">+ Associer un créateur</text>
</svg>
