<svg viewBox="0 0 600 450" xmlns="http://www.w3.org/2000/svg">
  <defs>
    <linearGradient id="bg1" x1="0%" y1="0%" x2="100%" y2="100%">
      <stop offset="0%" stop-color="#eff6ff"/>
      <stop offset="100%" stop-color="#dbeafe"/>
    </linearGradient>
    <linearGradient id="barBlue" x1="0%" y1="0%" x2="0%" y2="100%">
      <stop offset="0%" stop-color="#3b82f6"/>
      <stop offset="100%" stop-color="#2563eb"/>
    </linearGradient>
  </defs>

  <rect width="600" height="450" rx="16" fill="url(#bg1)"/>
  <rect x="1" y="1" width="598" height="448" rx="15" fill="none" stroke="#bfdbfe" stroke-width="2"/>

  <!-- Carte profil créateur -->
  <rect x="32" y="32" width="240" height="180" rx="14" fill="#ffffff" stroke="#e5e7eb" stroke-width="1.5"/>
  <circle cx="72" cy="72" r="22" fill="#2563eb"/>
  <text x="72" y="79" font-family="Arial, sans-serif" font-size="18" font-weight="800" fill="#ffffff" text-anchor="middle">AK</text>
  <text x="104" y="68" font-family="Arial, sans-serif" font-size="14" font-weight="700" fill="#111827">@ardennxbt</text>
  <text x="104" y="86" font-family="Arial, sans-serif" font-size="11" fill="#6b7280">Créateur · Tech</text>

  <rect x="48" y="112" width="88" height="46" rx="8" fill="#eff6ff"/>
  <text x="92" y="132" font-family="Arial, sans-serif" font-size="15" font-weight="800" fill="#2563eb" text-anchor="middle">118K</text>
  <text x="92" y="147" font-family="Arial, sans-serif" font-size="9" fill="#6b7280" text-anchor="middle">FOLLOWERS</text>

  <rect x="146" y="112" width="88" height="46" rx="8" fill="#eff6ff"/>
  <text x="190" y="132" font-family="Arial, sans-serif" font-size="15" font-weight="800" fill="#2563eb" text-anchor="middle">5.3%</text>
  <text x="190" y="147" font-family="Arial, sans-serif" font-size="9" fill="#6b7280" text-anchor="middle">ENGAGEMENT</text>

  <rect x="48" y="168" width="186" height="26" rx="13" fill="#dcfce7"/>
  <text x="141" y="185" font-family="Arial, sans-serif" font-size="10" font-weight="700" fill="#16a34a" text-anchor="middle">✓ Profil vérifié</text>

  <!-- Carte filtres -->
  <rect x="32" y="228" width="240" height="190" rx="14" fill="#ffffff" stroke="#e5e7eb" stroke-width="1.5"/>
  <text x="52" y="256" font-family="Arial, sans-serif" font-size="12" font-weight="700" fill="#111827">Filtres avancés</text>

  <rect x="52" y="270" width="90" height="24" rx="12" fill="#2563eb"/>
  <text x="97" y="286" font-family="Arial, sans-serif" font-size="10" font-weight="600" fill="#ffffff" text-anchor="middle">Tech</text>

  <rect x="150" y="270" width="90" height="24" rx="12" fill="#f3f4f6"/>
  <text x="195" y="286" font-family="Arial, sans-serif" font-size="10" font-weight="600" fill="#6b7280" text-anchor="middle">Beauty</text>

  <rect x="52" y="302" width="90" height="24" rx="12" fill="#f3f4f6"/>
  <text x="97" y="318" font-family="Arial, sans-serif" font-size="10" font-weight="600" fill="#6b7280" text-anchor="middle">Food</text>

  <rect x="150" y="302" width="90" height="24" rx="12" fill="#f3f4f6"/>
  <text x="195" y="318" font-family="Arial, sans-serif" font-size="10" font-weight="600" fill="#6b7280" text-anchor="middle">50K+</text>

  <text x="52" y="352" font-family="Arial, sans-serif" font-size="10" fill="#6b7280">Taux d'engagement min.</text>
  <rect x="52" y="362" width="188" height="6" rx="3" fill="#e5e7eb"/>
  <rect x="52" y="362" width="120" height="6" rx="3" fill="#2563eb"/>
  <circle cx="172" cy="365" r="7" fill="#2563eb"/>

  <!-- Panneau stats à droite -->
  <rect x="296" y="32" width="272" height="386" rx="14" fill="#ffffff" stroke="#e5e7eb" stroke-width="1.5"/>
  <text x="316" y="60" font-family="Arial, sans-serif" font-size="12" font-weight="700" fill="#111827">Croissance des vues</text>

  <line x1="316" y1="330" x2="548" y2="330" stroke="#e5e7eb" stroke-width="1.5"/>
  <rect x="326" y="270" width="24" height="60" rx="4" fill="url(#barBlue)"/>
  <rect x="366" y="240" width="24" height="90" rx="4" fill="url(#barBlue)"/>
  <rect x="406" y="290" width="24" height="40" rx="4" fill="url(#barBlue)"/>
  <rect x="446" y="210" width="24" height="120" rx="4" fill="url(#barBlue)"/>
  <rect x="486" y="180" width="24" height="150" rx="4" fill="url(#barBlue)"/>
  <rect x="526" y="150" width="24" height="180" rx="4" fill="#1e40af"/>

  <text x="338" y="345" font-family="Arial, sans-serif" font-size="9" fill="#9ca3af" text-anchor="middle">L</text>
  <text x="378" y="345" font-family="Arial, sans-serif" font-size="9" fill="#9ca3af" text-anchor="middle">M</text>
  <text x="418" y="345" font-family="Arial, sans-serif" font-size="9" fill="#9ca3af" text-anchor="middle">M</text>
  <text x="458" y="345" font-family="Arial, sans-serif" font-size="9" fill="#9ca3af" text-anchor="middle">J</text>
  <text x="498" y="345" font-family="Arial, sans-serif" font-size="9" fill="#9ca3af" text-anchor="middle">V</text>
  <text x="538" y="345" font-family="Arial, sans-serif" font-size="9" fill="#9ca3af" text-anchor="middle">S</text>

  <rect x="316" y="368" width="232" height="34" rx="10" fill="#eff6ff"/>
  <text x="332" y="390" font-family="Arial, sans-serif" font-size="11" font-weight="700" fill="#2563eb">↑ 24% cette semaine</text>
</svg>
