<svg viewBox="0 0 600 450" xmlns="http://www.w3.org/2000/svg">
  <defs>
    <linearGradient id="bg4" x1="0%" y1="0%" x2="100%" y2="100%">
      <stop offset="0%" stop-color="#eff6ff"/>
      <stop offset="100%" stop-color="#dbeafe"/>
    </linearGradient>
  </defs>

  <rect width="600" height="450" rx="16" fill="url(#bg4)"/>
  <rect x="1" y="1" width="598" height="448" rx="15" fill="none" stroke="#bfdbfe" stroke-width="2"/>

  <!-- Barre de recherche -->
  <rect x="32" y="32" width="536" height="52" rx="26" fill="#ffffff" stroke="#e5e7eb" stroke-width="1.5"/>
  <circle cx="62" cy="58" r="8" fill="none" stroke="#2563eb" stroke-width="2.5"/>
  <line x1="68" y1="64" x2="74" y2="70" stroke="#2563eb" stroke-width="2.5" stroke-linecap="round"/>
  <text x="88" y="63" font-family="Arial, sans-serif" font-size="12" fill="#9ca3af">Rechercher : niche, plateforme, localisation...</text>
  <rect x="480" y="44" width="68" height="28" rx="14" fill="#2563eb"/>
  <text x="514" y="62" font-family="Arial, sans-serif" font-size="10" font-weight="700" fill="#ffffff" text-anchor="middle">Filtrer</text>

  <!-- Résultats : 3 mini cartes créateurs -->
  <rect x="32" y="104" width="168" height="200" rx="14" fill="#ffffff" stroke="#e5e7eb" stroke-width="1.5"/>
  <circle cx="116" cy="150" r="26" fill="#2563eb"/>
  <text x="116" y="158" font-family="Arial, sans-serif" font-size="16" font-weight="800" fill="#ffffff" text-anchor="middle">MJ</text>
  <text x="116" y="196" font-family="Arial, sans-serif" font-size="12" font-weight="700" fill="#111827" text-anchor="middle">@marie.jt</text>
  <text x="116" y="212" font-family="Arial, sans-serif" font-size="9" fill="#6b7280" text-anchor="middle">Beauty · Instagram</text>
  <rect x="52" y="228" width="128" height="22" rx="11" fill="#eff6ff"/>
  <text x="116" y="243" font-family="Arial, sans-serif" font-size="9" font-weight="700" fill="#2563eb" text-anchor="middle">85K abonnés</text>
  <rect x="52" y="260" width="128" height="28" rx="8" fill="#f3f4f6"/>
  <text x="116" y="278" font-family="Arial, sans-serif" font-size="9" font-weight="700" fill="#374151" text-anchor="middle">Voir le profil</text>

  <rect x="216" y="104" width="168" height="200" rx="14" fill="#ffffff" stroke="#2563eb" stroke-width="2"/>
  <circle cx="300" cy="150" r="26" fill="#1e40af"/>
  <text x="300" y="158" font-family="Arial, sans-serif" font-size="16" font-weight="800" fill="#ffffff" text-anchor="middle">AK</text>
  <text x="300" y="196" font-family="Arial, sans-serif" font-size="12" font-weight="700" fill="#111827" text-anchor="middle">@ardennxbt</text>
  <text x="300" y="212" font-family="Arial, sans-serif" font-size="9" fill="#6b7280" text-anchor="middle">Tech · TikTok</text>
  <rect x="236" y="228" width="128" height="22" rx="11" fill="#dcfce7"/>
  <text x="300" y="243" font-family="Arial, sans-serif" font-size="9" font-weight="700" fill="#16a34a" text-anchor="middle">✓ 118K abonnés</text>
  <rect x="236" y="260" width="128" height="28" rx="8" fill="#2563eb"/>
  <text x="300" y="278" font-family="Arial, sans-serif" font-size="9" font-weight="700" fill="#ffffff" text-anchor="middle">Voir le profil</text>

  <rect x="400" y="104" width="168" height="200" rx="14" fill="#ffffff" stroke="#e5e7eb" stroke-width="1.5"/>
  <circle cx="484" cy="150" r="26" fill="#3b82f6"/>
  <text x="484" y="158" font-family="Arial, sans-serif" font-size="16" font-weight="800" fill="#ffffff" text-anchor="middle">LR</text>
  <text x="484" y="196" font-family="Arial, sans-serif" font-size="12" font-weight="700" fill="#111827" text-anchor="middle">@lea.food</text>
  <text x="484" y="212" font-family="Arial, sans-serif" font-size="9" fill="#6b7280" text-anchor="middle">Food · YouTube</text>
  <rect x="420" y="228" width="128" height="22" rx="11" fill="#eff6ff"/>
  <text x="484" y="243" font-family="Arial, sans-serif" font-size="9" font-weight="700" fill="#2563eb" text-anchor="middle">204K abonnés</text>
  <rect x="420" y="260" width="128" height="28" rx="8" fill="#f3f4f6"/>
  <text x="484" y="278" font-family="Arial, sans-serif" font-size="9" font-weight="700" fill="#374151" text-anchor="middle">Voir le profil</text>

  <rect x="32" y="330" width="536" height="88" rx="14" fill="#ffffff" stroke="#e5e7eb" stroke-width="1.5"/>
  <text x="52" y="358" font-family="Arial, sans-serif" font-size="11" font-weight="700" fill="#111827">Filtres appliqués</text>
  <rect x="52" y="372" width="90" height="24" rx="12" fill="#2563eb"/>
  <text x="97" y="388" font-family="Arial, sans-serif" font-size="10" font-weight="600" fill="#ffffff" text-anchor="middle">Tech</text>
  <rect x="150" y="372" width="110" height="24" rx="12" fill="#2563eb"/>
  <text x="205" y="388" font-family="Arial, sans-serif" font-size="10" font-weight="600" fill="#ffffff" text-anchor="middle">50K+ abonnés</text>
  <rect x="268" y="372" width="100" height="24" rx="12" fill="#2563eb"/>
  <text x="318" y="388" font-family="Arial, sans-serif" font-size="10" font-weight="600" fill="#ffffff" text-anchor="middle">TikTok</text>
</svg>
